<svg width="1024" height="1024" viewBox="0 0 1024 1024" fill="none" xmlns="http://www.w3.org/2000/svg">
<g clip-path="url(#clip0_1_1038)">
<path d="M904.154 0H119.846C53.6569 0 0 53.6569 0 119.846V904.154C0 970.343 53.6569 1024 119.846 1024H904.154C970.343 1024 1024 970.343 1024 904.154V119.846C1024 53.6569 970.343 0 904.154 0Z" fill="black"/>
<path d="M774.23 365.356V365.383C771.35 364.901 768.544 364.341 765.799 363.719C735.611 356.877 713.281 341.691 696.786 323.458C693.91 320.28 691.204 317.01 688.67 313.674C688.683 313.683 688.696 313.696 688.709 313.705L688.67 313.661C684.647 310.636 680.869 307.427 677.323 304.074C650.3 278.526 636.734 244.591 630.018 219.542C629.353 217.069 628.758 214.679 628.224 212.398H542.05L536.95 661.038C521.02 730.897 450.457 727.399 450.457 727.399C415.624 727.867 394.875 714.616 382.516 698.537C380.341 695.705 378.419 692.789 376.734 689.839C373.446 688 370.439 685.969 367.676 683.793C336.67 659.371 337.261 616.435 337.261 616.435C339.59 515.145 453.679 529.114 453.679 529.114L452.563 456.577L452.379 444.539C449.814 444.692 447.292 444.876 444.793 445.073C231.208 462.168 250.203 655.216 250.203 655.216C256.879 697.749 270.896 730.437 288.735 755.578C290.998 758.764 293.318 761.838 295.695 764.788L295.796 764.889C298.234 766.872 300.699 768.772 303.181 770.588C303.658 770.939 304.131 771.28 304.608 771.626C366.674 816.243 439.706 811.449 439.706 811.449C619.587 795.72 622.104 621.478 622.104 621.478L623.667 397.151C698.182 449.144 774.239 447.603 774.239 447.603V365.361L774.226 365.348L774.23 365.356Z" fill="white"/>
<path d="M444.793 445.082C447.292 444.88 449.814 444.696 452.379 444.547L451.937 416.758C202.198 415.003 223.145 628.092 223.145 628.092C233.699 695.206 262.491 737.848 295.787 764.911C295.757 764.871 295.726 764.836 295.695 764.797C293.318 761.846 290.994 758.773 288.735 755.586C270.896 730.446 256.883 697.758 250.203 655.225C250.203 655.225 231.208 462.181 444.793 445.082V445.082Z" fill="#FF7900"/>
<path d="M688.709 313.705C688.709 313.705 688.683 313.683 688.67 313.674C691.2 317.01 693.91 320.276 696.786 323.458C713.281 341.691 735.616 356.877 765.799 363.719C768.548 364.341 771.354 364.905 774.231 365.383V340.496C737.559 340.281 709.757 329.499 688.709 313.705V313.705Z" fill="#FF7900"/>
<path d="M514.988 185.265L509.914 633.906C493.962 703.755 423.395 700.266 423.395 700.266C403.669 700.529 388.448 696.401 376.734 689.834C376.734 689.834 376.734 689.839 376.738 689.843C376.738 689.843 376.734 689.843 376.729 689.843C378.415 692.789 380.337 695.709 382.512 698.541C394.87 714.62 415.62 727.872 450.453 727.403C450.453 727.403 521.016 730.901 536.946 661.043L542.046 212.402H628.219C624.424 196.258 623.658 185.27 623.658 185.27H514.988V185.265Z" fill="#FF7900"/>
<path d="M677.323 304.074C680.869 307.427 684.647 310.636 688.67 313.661C654.673 268.843 650.707 212.394 650.694 212.394H628.219C628.753 214.679 629.353 217.064 630.014 219.538C636.729 244.587 650.296 278.522 677.319 304.07L677.323 304.074Z" fill="#F8A000"/>
<path d="M367.677 683.789C370.439 685.965 373.446 687.996 376.734 689.834C376.734 689.834 376.738 689.834 376.743 689.834C376.743 689.834 376.743 689.83 376.738 689.826C363.977 667.522 364.301 643.559 364.301 643.559C366.63 542.269 480.733 556.238 480.733 556.238L478.978 443.891C469.745 443.83 460.898 444.057 452.384 444.534L452.567 456.573L453.684 529.11C453.684 529.11 339.59 515.137 337.265 616.43C337.265 616.43 336.674 659.362 367.681 683.789H367.677Z" fill="#F8A000"/>
<path d="M774.244 365.37V447.612C774.244 447.612 698.187 449.153 623.671 397.16L622.108 621.487C622.108 621.487 619.587 795.729 439.71 811.458C439.71 811.458 366.678 816.252 304.612 771.635C304.135 771.293 303.658 770.948 303.185 770.597C300.703 768.776 298.239 766.881 295.8 764.898C360.944 845.542 466.773 838.591 466.773 838.591C646.653 822.875 649.171 648.619 649.171 648.619L650.712 424.292C725.241 476.285 801.297 474.744 801.297 474.744V367.628C791.684 367.567 782.666 366.792 774.248 365.37H774.244Z" fill="#F8A000"/>
</g>
<defs>
<clipPath id="clip0_1_1038">
<rect width="1024" height="1024" fill="white"/>
</clipPath>
</defs>
</svg>
